<?xml version="1.0" encoding="utf-8"?>
<!-- Generator: Adobe Illustrator 15.0.0, SVG Export Plug-In . SVG Version: 6.00 Build 0)  -->
<!DOCTYPE svg PUBLIC "-//W3C//DTD SVG 1.1//EN" "http://www.w3.org/Graphics/SVG/1.1/DTD/svg11.dtd">
<svg version="1.1" id="Layer_1" xmlns="http://www.w3.org/2000/svg" xmlns:xlink="http://www.w3.org/1999/xlink" x="0px" y="0px"
	 width="1505.699px" height="1547.691px" viewBox="0 0 1505.699 1547.691" enable-background="new 0 0 1505.699 1547.691"
	 xml:space="preserve">
<g>
	<path fill-rule="evenodd" clip-rule="evenodd" fill="#44AF35" d="M753.333,30.316c410.458,0,743.333,332.87,743.333,743.333
		c0,410.457-332.875,743.333-743.333,743.333c-105.4,0-205.66-21.983-296.501-61.571l-0.05,0.033
		c-48.144-91.865-70.831-187.1-70.831-287.382c0-312.361,356.897-512.121,216.076-613.683
		c17.04,53.465-25.357,140.146-85.243,186.617c-42.919-7.546-78.886-53.137-78.886-102.933
		c0-108.865,80.997-224.849,148.647-310.119c40.073,115.691,126.074,265.979,126.074,330.112
		c0,51.914-35.882,104.193-76.035,135.933c160.22-20.385,348.615-9.436,546.036,11.521
		c-164.06,272.911-438.951,573.042-708.143,337.879c60.699-118.203,218.138-224.561,394.964-238.056
		c-315.18-34.449-447.118,109.991-447.118,305.67c0,56.719,3.43,109.792,16.758,169.328
		c94.072,48.858,200.942,76.485,314.251,76.485c377.238,0,683.167-305.93,683.167-683.168
		c0-377.241-305.929-683.171-683.167-683.171S70.165,396.409,70.165,773.65c0,221.855,105.837,419.005,269.729,543.813l-0.01,0.049
		c4.41,29.796,12.854,59.58,24.084,89.37C151.61,1276.005,10,1041.345,10,773.65C10,363.186,342.874,30.316,753.333,30.316z"/>
</g>
</svg>
